<svg version="1.1" xmlns="http://www.w3.org/2000/svg" xmlns:xlink="http://www.w3.org/1999/xlink" width="227.43333435058594" height="107.66667175292969"><defs></defs><g transform="translate(-109.25,32.05000305175781)"><rect fill="rgb(255,255,255)" stroke="none" x="0" y="0" width="227.43333435058594" height="107.66667175292969" fill-opacity="0" transform="translate(109.25,-32.05000305175781)"></rect><g transform="translate(113.69166666666666,53.857421875) rotate(0,0,0) translate(-113.69166666666666,-53.857421875) matrix(1,0,0,1,113.69166666666666,53.857421875)"><path fill="rgb(0,0,0)" fill-opacity="1" d="M18.77-20.07L18.77-20.07Q16.18-18.60 13.81-17.63Q11.45-16.65 9.39-16.06Q7.34-15.48 5.71-15.23Q4.07-14.99 2.90-14.99L2.90-14.99L-4.42-14.99L0.90-17.97Q1.73-19.04 2.51-20.12Q3.29-21.19 3.83-22.12L3.83-22.12Q4.46-23.14 5.00-24.17L5.00-24.17Q6.51-27.25 9.49-34.13L9.49-34.13Q10.71-37.06 12.40-41.11Q14.08-45.17 16.28-50.54Q18.48-55.91 21.16-62.74Q23.85-69.58 27.17-78.08L27.17-78.08L35.66-85.89L54.80-21.00Q56.86-20.46 58.74-20.31Q60.62-20.17 62.28-20.17L62.28-20.17Q63.15-20.17 63.89-20.19Q64.62-20.21 65.16-20.26L65.16-20.26Q65.74-20.31 66.28-20.41L66.28-20.41Q63.45-19.04 61.35-18.04Q59.25-17.04 57.61-16.36Q55.98-15.67 54.59-15.33Q53.19-14.99 51.78-14.99L51.78-14.99L43.97-14.99L46.50-16.60L38.69-42.48Q37.28-42.09 35.42-41.72Q33.56-41.36 31.00-41.06Q28.44-40.77 25.04-40.53Q21.65-40.28 17.21-40.09L17.21-40.09Q15.16-35.74 13.45-32.37Q11.74-29.00 10.37-26.51Q9.00-24.02 7.95-22.31Q6.90-20.61 6.17-19.58L6.17-19.58Q7.00-19.43 8.03-19.36Q9.05-19.29 10.08-19.29L10.08-19.29Q11.64-19.29 13.18-19.41Q14.72-19.53 15.99-19.68L15.99-19.68Q17.45-19.87 18.77-20.07ZM19.80-45.90L25.61-45.90Q32.20-45.90 37.57-46.19L37.57-46.19L30.10-71.00Q27.07-63.23 24.56-57.13Q22.04-51.03 19.80-45.90L19.80-45.90ZM83.56-20.90L83.56-20.90L76.88-11.57Q76.97-18.16 76.26-23.95Q75.56-29.74 74.68-34.13L74.68-34.13Q73.65-39.26 72.29-43.51L72.29-43.51Q70.97-47.31 69.89-49.93Q68.82-52.54 67.87-54.13Q66.91-55.71 66.04-56.40Q65.16-57.08 64.28-57.08L64.28-57.08Q63.55-57.08 62.76-56.67Q61.98-56.25 61.05-55.57L61.05-55.57Q61.79-56.64 62.98-58.25Q64.18-59.86 65.62-61.33Q67.06-62.79 68.62-63.84Q70.19-64.89 71.60-64.89L71.60-64.89Q72.58-64.89 73.41-64.26Q74.24-63.62 74.97-62.11L74.97-62.11Q75.70-60.50 76.97-56.91Q78.24-53.32 79.54-48.34Q80.83-43.36 81.90-37.28Q82.98-31.20 83.37-24.61L83.37-24.61Q85.62-28.03 87.96-31.76Q90.30-35.50 92.23-39.28Q94.16-43.07 95.38-46.73Q96.60-50.39 96.60-53.61L96.60-53.61Q96.60-55.32 96.16-57.06Q95.72-58.79 94.60-60.21L94.60-60.21L102.90-66.60Q103.78-64.16 103.78-61.47L103.78-61.47Q103.78-58.15 102.73-54.61Q101.68-51.07 99.97-47.46Q98.26-43.85 96.09-40.26Q93.92-36.67 91.67-33.28Q89.42-29.88 87.30-26.73Q85.18-23.58 83.56-20.90ZM135.08-34.57L135.08-29.20Q132.49-26.27 130.32-24.05Q128.14-21.83 126.48-20.31L126.48-20.31Q124.53-18.55 122.97-17.29L122.97-17.29Q118.67-13.87 115.50-13.87L115.50-13.87Q113.69-13.87 112.40-14.82Q111.10-15.77 110.18-17.29Q109.25-18.80 108.66-20.70Q108.08-22.61 107.76-24.54Q107.44-26.46 107.32-28.22Q107.20-29.98 107.20-31.20L107.20-31.20Q107.20-34.47 107.95-38.28Q108.71-42.09 110.15-45.87Q111.59-49.66 113.69-53.15Q115.79-56.64 118.50-59.35Q121.21-62.06 124.46-63.67Q127.71-65.28 131.47-65.28L131.47-65.28Q132.49-65.28 133.17-64.92Q133.86-64.55 134.30-63.92Q134.74-63.28 134.91-62.50Q135.08-61.72 135.08-60.89L135.08-60.89Q135.08-58.74 134.10-56.59Q133.13-54.44 131.49-52.37Q129.85-50.29 127.75-48.32Q125.65-46.34 123.38-44.56Q121.11-42.77 118.87-41.21Q116.62-39.65 114.77-38.38L114.77-38.38L114.77-37.30Q114.77-36.08 114.89-34.35Q115.01-32.62 115.33-30.74Q115.64-28.86 116.18-27.00Q116.72-25.15 117.55-23.68Q118.38-22.22 119.53-21.31Q120.67-20.41 122.19-20.41L122.19-20.41Q122.87-20.41 123.60-20.63Q124.34-20.85 125.07-21.39L125.07-21.39Q126.34-22.41 127.95-24.22L127.95-24.22Q129.32-25.78 131.12-28.27Q132.93-30.76 135.08-34.57L135.08-34.57ZM126.00-58.01L126.00-58.01Q125.41-58.69 124.48-58.89Q123.55-59.08 122.51-58.79Q121.46-58.50 120.45-57.67Q119.45-56.84 118.77-55.47L118.77-55.47Q117.79-53.52 116.62-49.88Q115.45-46.24 114.96-41.50L114.96-41.50Q116.52-42.43 118.18-43.65Q119.84-44.87 121.38-46.24Q122.92-47.61 124.17-49.10Q125.41-50.59 126.12-52.12Q126.83-53.66 126.88-55.15Q126.92-56.64 126.00-58.01ZM155.68-42.19L155.68-42.09Q155.44-39.31 155.24-35.84L155.24-35.84Q155.05-32.86 154.80-28.78Q154.56-24.71 154.27-19.78L154.27-19.78L146.06-12.79Q147.14-22.75 147.94-31.79Q148.75-40.82 148.75-49.61L148.75-49.61Q148.75-54.05 147.53-56.18Q146.31-58.30 144.26-58.30L144.26-58.30Q142.11-58.30 139.28-56.10L139.28-56.10Q139.91-56.69 140.82-57.59Q141.72-58.50 142.77-59.52Q143.82-60.55 144.97-61.57Q146.11-62.60 147.21-63.43Q148.31-64.26 149.34-64.77Q150.36-65.28 151.14-65.28L151.14-65.28Q153.05-65.28 154.07-64.21Q155.10-63.13 155.59-61.57Q156.07-60.01 156.17-58.30Q156.27-56.59 156.27-55.37L156.27-55.37L156.27-53.08Q158.86-57.37 162.40-60.64Q165.94-63.92 170.67-65.28L170.67-65.28Q171.70-65.58 172.68-65.45Q173.65-65.33 174.63-65.06Q175.61-64.79 176.70-64.50Q177.80-64.21 179.07-64.21L179.07-64.21Q180.05-64.21 181.12-64.45Q182.20-64.70 183.56-65.28L183.56-65.28Q182.15-63.87 180.78-62.50Q179.41-61.13 178.07-60.03Q176.73-58.94 175.43-58.18Q174.14-57.42 172.97-57.28L172.97-57.28Q171.70-57.13 170.55-57.45Q169.40-57.76 168.21-58.13Q167.01-58.50 165.69-58.67Q164.38-58.84 162.86-58.40L162.86-58.40Q161.84-58.06 160.84-56.52Q159.83-54.98 158.88-52.71Q157.93-50.44 157.12-47.68Q156.32-44.92 155.68-42.19L155.68-42.19ZM214.47-59.08L222.97-64.79Q222.24-57.62 221.60-50.76Q220.97-43.90 220.50-37.18Q220.04-30.47 219.77-23.83Q219.50-17.19 219.50-10.50L219.50-10.50Q219.50-6.79 219.36-3.91Q219.21-1.03 218.67 0.49L218.67 0.49Q217.79 3.22 215.79 5.88Q213.79 8.54 211.08 10.94Q208.37 13.33 205.17 15.36Q201.97 17.38 198.65 18.82Q195.33 20.26 192.11 21.04Q188.89 21.83 186.20 21.73L186.20 21.73Q183.91 21.68 181.95 21.02Q180.00 20.36 178.80 19.34Q177.61 18.31 177.31 17.07Q177.02 15.82 178.10 14.70L178.10 14.70Q178.93 13.87 180.20 12.84L180.20 12.84Q181.27 12.01 182.83 10.84Q184.39 9.67 186.59 8.40L186.59 8.40Q185.66 9.38 185.57 10.21Q185.47 11.04 185.71 11.62L185.71 11.62Q185.96 12.30 186.59 12.89L186.59 12.89Q187.81 13.82 190.33 14.62Q192.84 15.43 195.87 15.43L195.87 15.43Q199.63 15.43 202.44 14.23Q205.24 13.04 207.20 10.94Q209.15 8.84 210.20 5.96Q211.25 3.08 211.49-0.29L211.49-0.29Q211.79-3.96 211.84-8.20Q211.89-12.45 211.89-16.99L211.89-16.99Q211.89-20.31 211.89-23.49Q211.89-26.66 211.98-29.69L211.98-29.69Q211.15-28.61 210.42-27.76Q209.69-26.90 209.10-26.27L209.10-26.27Q208.42-25.54 207.78-24.90L207.78-24.90Q201.68-19.14 197.24-16.36Q192.79-13.57 189.47-14.11L189.47-14.11Q186.74-14.65 185.52-17.63Q184.30-20.61 184.30-25.29L184.30-25.29Q184.30-27.44 184.42-30.10Q184.54-32.76 184.74-35.60Q184.93-38.43 185.15-41.26Q185.37-44.09 185.59-46.63Q185.81-49.17 185.98-51.22Q186.15-53.27 186.20-54.59L186.20-54.59Q186.30-56.64 185.54-57.71Q184.79-58.79 183.37-58.79L183.37-58.79Q181.56-58.79 178.39-56.79L178.39-56.79Q179.56-57.86 181.03-59.18Q182.49-60.50 184.08-61.67Q185.66-62.84 187.32-63.62Q188.98-64.40 190.60-64.40L190.60-64.40Q192.16-64.40 193.11-63.11Q194.06-61.82 194.06-58.89L194.06-58.89Q194.06-57.37 193.97-54.98Q193.87-52.59 193.70-49.78Q193.53-46.97 193.31-43.97Q193.09-40.97 192.92-38.13Q192.74-35.30 192.60-32.89Q192.45-30.47 192.40-28.91L192.40-28.91Q192.35-27.10 192.72-25.56Q193.09-24.02 193.79-22.90Q194.50-21.78 195.50-21.14Q196.50-20.51 197.68-20.51L197.68-20.51Q199.19-20.51 200.80-21.48L200.80-21.48Q202.27-22.46 203.78-23.90Q205.29-25.34 206.78-27.37Q208.27-29.39 209.69-32.06Q211.10-34.72 212.37-38.09L212.37-38.09Q212.67-43.70 213.20-48.83Q213.74-53.96 214.47-59.08L214.47-59.08Z"></path></g></g></svg>